<?xml version="1.0" encoding="utf-8"?>
<!-- Generator: Adobe Illustrator 21.0.0, SVG Export Plug-In . SVG Version: 6.00 Build 0)  -->
<svg version="1.1" id="Outer_Ring" xmlns="http://www.w3.org/2000/svg" xmlns:xlink="http://www.w3.org/1999/xlink" x="0px" y="0px"
	 viewBox="0 0 383.2 383.2" style="enable-background:new 0 0 383.2 383.2;" xml:space="preserve">
<style type="text/css">
	.st0{fill:url(#SVGID_1_);}
	.st1{fill:none;stroke:#76A141;stroke-width:15;stroke-miterlimit:10;}
	.st2{fill:none;stroke:#76A141;stroke-width:2;stroke-miterlimit:10;}
	.st3{fill:none;stroke:#76A141;stroke-width:3.72;stroke-miterlimit:10;}
	.st4{fill:#D2E7A1;}
</style>
<radialGradient id="SVGID_1_" cx="-72.5642" cy="110.3402" r="90.1094" gradientTransform="matrix(2.7797 0 0 2.8444 354.493 -186.0751)" gradientUnits="userSpaceOnUse">
	<stop  offset="0" style="stop-color:#005423"/>
	<stop  offset="0.767" style="stop-color:#003215"/>
</radialGradient>
<path class="st0" d="M0,0h383.2v383.2H0V0z"/>
<title>fdsaf</title>
<g>
	<g>
		<circle class="st1" cx="190.9" cy="190.9" r="155.9"/>
		<circle class="st2" cx="190.9" cy="190.9" r="20.9"/>
		<circle class="st3" cx="190.9" cy="190.9" r="61.7"/>
	</g>
	<g>
		<circle class="st4" cx="211.8" cy="227.4" r="6.7"/>
		<circle class="st4" cx="232.9" cy="190.9" r="6.7"/>
		<circle class="st4" cx="227.3" cy="212" r="6.7"/>
		<circle class="st4" cx="169.9" cy="227.4" r="6.7"/>
		<circle class="st4" cx="190.9" cy="233" r="6.7"/>
		<circle class="st4" cx="227.3" cy="169.8" r="6.7"/>
		<circle class="st4" cx="154.7" cy="169.8" r="6.7"/>
		<circle class="st4" cx="154.7" cy="212" r="6.7"/>
		<circle class="st4" cx="211.8" cy="154.6" r="6.7"/>
		<circle class="st4" cx="169.9" cy="154.6" r="6.7"/>
		<circle class="st4" cx="190.9" cy="148.9" r="6.7"/>
		<circle class="st4" cx="149.1" cy="190.9" r="6.7"/>
		<circle class="st4" cx="190.9" cy="190.9" r="12.6"/>
		<path class="st4" d="M309.1,216c3.3-15.9,3.5-32.2,0.4-48.1l-36.3,7.1c2.1,11,2,22.4-0.3,33.4L309.1,216z"/>
		<path class="st4" d="M150.4,117.8c9.8-5.4,20.7-8.8,31.9-10L178.4,71c-16.1,1.7-31.7,6.6-45.9,14.4L150.4,117.8z"/>
		<path class="st4" d="M130.6,295.5c14,8.1,29.5,13.3,45.6,15.3l4.5-36.7c-11.2-1.3-22-4.9-31.7-10.6L130.6,295.5z"/>
		<path class="st4" d="M231.6,264.2c-9.8,5.4-20.7,8.8-31.9,10l3.8,36.8c16.1-1.7,31.7-6.6,45.9-14.4L231.6,264.2z"/>
		<path class="st4" d="M115.1,155.6c4.8-10.2,11.5-19.3,19.9-26.9l-24.8-27.4c-12,10.9-21.8,24-28.6,38.7L115.1,155.6z"/>
		<path class="st4" d="M266.9,226.4c-4.8,10.2-11.5,19.3-19.9,26.8l24.7,27.4c12-10.9,21.8-24,28.6-38.7L266.9,226.4z"/>
		<path class="st4" d="M133.9,252.2c-8.2-7.6-14.8-16.9-19.4-27.2l-33.8,15c6.6,14.8,16.1,28.1,27.9,39.1L133.9,252.2z"/>
		<path class="st4" d="M201.2,107.8c11.2,1.3,22,4.9,31.7,10.6l18.5-32c-13.8-8-29-13.1-44.8-15.2l-0.8-0.1L201.2,107.8z"/>
		<path class="st4" d="M108.8,207c-2.1-11-2-22.4,0.3-33.4l-36.2-7.7c-3.3,15.9-3.5,32.2-0.4,48.1L108.8,207z"/>
		<path class="st4" d="M248.1,129.8c8.2,7.6,14.8,16.9,19.4,27.2l33.8-15c-6.6-14.8-16.1-28.1-27.9-39.1L248.1,129.8z"/>
	</g>
</g>
</svg>
