<?xml version="1.0" encoding="utf-8"?>
<!-- Generator: Adobe Illustrator 21.0.0, SVG Export Plug-In . SVG Version: 6.00 Build 0)  -->
<svg version="1.1" id="mnemonic" xmlns="http://www.w3.org/2000/svg" xmlns:xlink="http://www.w3.org/1999/xlink" x="0px" y="0px"
	 viewBox="0 0 612 612" style="enable-background:new 0 0 612 612;" xml:space="preserve">
<style type="text/css">
	.st0{fill:url(#tile_1_);}
	.st1{fill:url(#SVGID_1_);}
</style>
<radialGradient id="tile_1_" cx="92.985" cy="-111.4108" r="393.4768" gradientTransform="matrix(2.55 0 0 2.55 0 237.0725)" gradientUnits="userSpaceOnUse">
	<stop  offset="0" style="stop-color:#EC202B"/>
	<stop  offset="0.1463" style="stop-color:#E2202A"/>
	<stop  offset="0.3994" style="stop-color:#C51E26"/>
	<stop  offset="0.7265" style="stop-color:#981C20"/>
	<stop  offset="1" style="stop-color:#6D1A1B"/>
</radialGradient>
<rect id="tile" x="-7.8" class="st0" width="627.7" height="612"/>
<g>
	
		<linearGradient id="SVGID_1_" gradientUnits="userSpaceOnUse" x1="98.1026" y1="308.2026" x2="513.8975" y2="308.2026" gradientTransform="matrix(1 0 0 -1 0 612.1)">
		<stop  offset="0.14" style="stop-color:#FFFFFF"/>
		<stop  offset="1" style="stop-color:#EBEDEB"/>
	</linearGradient>
	<path class="st1" d="M305.9,226.2c40.3,0,73.1,32.3,73.1,72.1s-32.6,72.1-72.9,72.1c-26.9,0-50.5-14.4-63.1-35.8l9.6-5.7
		c-5.5-9.3-8.6-19.9-8.6-30.6c0-33.5,27.8-60.9,61.9-60.9v-11.2H305.9z M306,377.8c44.4,0,80.4-35.7,80.4-79.6
		c0-43.9-36.1-79.6-80.6-79.6v-11.2c-50.6,0-91.8,40.7-91.8,90.8c0,16,4.6,31.9,12.8,45.8l9.6-5.6
		C250.5,361.9,276.5,377.8,306,377.8z M425.4,367c-24,40.4-68.5,67.6-119.3,67.6c-76.2,0-138.4-61.1-138.4-136.3
		s61.9-136.3,138.2-136.3v11.2c70.1,0,127,56.1,127,125.1c0,22.2-5.7,43.9-17.1,63L425.4,367z M306.1,442.1
		c53.5,0,100.4-28.6,125.7-71.3l9.6,5.7c14.1-23.7,21.2-50.7,21.2-78.3c0-85.4-70.4-155-156.8-155v11.2
		c-80.3,0-145.6,64.5-145.6,143.8C160.2,377.5,225.7,442.1,306.1,442.1z M306,100.5c110.6,0,200.4,88.7,200.4,197.7
		c0,36.3-9.9,70.4-27.4,99.7l-9.6-5.6c-33.8,57.1-96.5,92.5-163.4,92.5s-129.5-35.5-163.4-92.6l-9.6,5.6
		c-17.4-29.3-27.4-63.4-27.4-99.7C105.6,189.2,195.5,100.5,306,100.5z M485.5,401.7c18.1-30.4,28.4-65.7,28.4-103.5
		c0-113.1-93.2-205.1-207.9-205.1s-207.9,92-207.9,205.1c0,37.7,10.4,73,28.4,103.5l-9.6,5.7c39.2,66.1,111.7,107.2,189.1,107.2
		s149.9-41,189.1-107.2L485.5,401.7z"/>
</g>
</svg>
