<?xml version="1.0" encoding="utf-8"?>
<!-- Generator: Adobe Illustrator 21.0.0, SVG Export Plug-In . SVG Version: 6.00 Build 0)  -->
<svg id="Outer_Ring" data-name="Outer Ring" xmlns="http://www.w3.org/2000/svg" viewBox="0 0 381.8 381.8" style="background: #062e12">
  <defs>
    <style>
      .cls-1, .cls-3, .cls-4 {
        fill: none;
        stroke: #fff;
        stroke-miterlimit: 10;
      }

      .cls-1 {
        stroke-width: 8px;
      }

      .cls-2 {
        fill: #afbc84;
      }

      .cls-3 {
        stroke-width: 2px;
      }

      .cls-4 {
        stroke-width: 3.72px;
      }
    </style>
  </defs>
  <title>fdsaf</title>
  <circle class="cls-1" cx="190.9" cy="190.9" r="186.9"/>
  <circle class="cls-2" cx="215.9" cy="234.6" r="8"/>
  <circle class="cls-2" cx="241.2" cy="190.9" r="8"/>
  <circle class="cls-2" cx="234.5" cy="216.1" r="8"/>
  <circle class="cls-2" cx="165.7" cy="234.6" r="8"/>
  <circle class="cls-2" cx="190.8" cy="241.3" r="8"/>
  <circle class="cls-2" cx="234.5" cy="165.6" r="8"/>
  <circle class="cls-2" cx="147.5" cy="165.6" r="8"/>
  <circle class="cls-2" cx="147.5" cy="216.1" r="8"/>
  <circle class="cls-2" cx="215.9" cy="147.4" r="8"/>
  <circle class="cls-2" cx="165.7" cy="147.4" r="8"/>
  <circle class="cls-2" cx="190.8" cy="140.5" r="8"/>
  <circle class="cls-2" cx="140.7" cy="190.9" r="8"/>
  <circle class="cls-3" cx="190.9" cy="190.9" r="25.1"/>
  <circle class="cls-2" cx="190.9" cy="190.9" r="15.1"/>
  <circle class="cls-4" cx="190.9" cy="190.9" r="74"/>
  <path class="cls-2" d="M332.5,221a145.57,145.57,0,0,0,.5-57.7l-43.5,8.5a99.79,99.79,0,0,1-.4,40Z"/>
  <path class="cls-2" d="M142.3,103.2a101,101,0,0,1,38.2-12l-4.6-44.1a144.45,144.45,0,0,0-55,17.3Z"/>
  <path class="cls-2" d="M118.6,316.2a143.45,143.45,0,0,0,54.7,18.3l5.4-44a98.84,98.84,0,0,1-38-12.7Z"/>
  <path class="cls-2" d="M239.6,278.7a101,101,0,0,1-38.2,12l4.6,44.1a144.45,144.45,0,0,0,55-17.3Z"/>
  <path class="cls-2" d="M100,148.5a101.82,101.82,0,0,1,23.8-32.2L94.1,83.4a145.2,145.2,0,0,0-34.3,46.4Z"/>
  <path class="cls-2" d="M281.9,233.4a100.31,100.31,0,0,1-23.8,32.1l29.6,32.9A145.2,145.2,0,0,0,322,252Z"/>
  <path class="cls-2" d="M122.5,264.3a98.7,98.7,0,0,1-23.2-32.6l-40.5,18a144.47,144.47,0,0,0,33.5,46.9Z"/>
  <path class="cls-2" d="M203.2,91.3a98.84,98.84,0,0,1,38,12.7l22.2-38.4a144.39,144.39,0,0,0-53.7-18.2l-1-.1Z"/>
  <path class="cls-2" d="M92.4,210.1a101.63,101.63,0,0,1,.3-40l-43.4-9.2a145.57,145.57,0,0,0-.5,57.7Z"/>
  <path class="cls-2" d="M259.4,117.6a98.7,98.7,0,0,1,23.2,32.6l40.5-18a144.47,144.47,0,0,0-33.5-46.9Z"/>
</svg>
