<?xml version="1.0" encoding="utf-8"?>
<!-- Generator: Adobe Illustrator 18.1.0, SVG Export Plug-In . SVG Version: 6.00 Build 0)  -->
<!DOCTYPE svg PUBLIC "-//W3C//DTD SVG 1.1//EN" "http://www.w3.org/Graphics/SVG/1.1/DTD/svg11.dtd">
<svg version="1.1" id="mnemonic" xmlns="http://www.w3.org/2000/svg" xmlns:xlink="http://www.w3.org/1999/xlink" x="0px" y="0px"
	 viewBox="0 0 612 792" style="enable-background:new 0 0 612 792;" xml:space="preserve">
<style type="text/css">
	.st0{fill:url(#tile_1_);}
	.st1{fill-rule:evenodd;clip-rule:evenodd;fill:url(#SVGID_1_);}
</style>
<radialGradient id="tile_1_" cx="93.6604" cy="809.9998" r="383.6399" gradientTransform="matrix(2.55 0 0 -2.55 0 2117.25)" gradientUnits="userSpaceOnUse">
	<stop  offset="0" style="stop-color:#EC202B"/>
	<stop  offset="0.1463" style="stop-color:#E2202A"/>
	<stop  offset="0.3994" style="stop-color:#C51E26"/>
	<stop  offset="0.7265" style="stop-color:#981C20"/>
	<stop  offset="1" style="stop-color:#6D1A1B"/>
</radialGradient>
<rect id="tile" y="97.6" class="st0" width="612" height="596.7"/>
<g>
	<linearGradient id="SVGID_1_" gradientUnits="userSpaceOnUse" x1="103.3606" y1="393.8471" x2="508.7487" y2="393.8471">
		<stop  offset="0.14" style="stop-color:#FFFFFF"/>
		<stop  offset="1" style="stop-color:#EBEDEB"/>
	</linearGradient>
	<path class="st1" d="M305.9,318.1c39.3,0,71.3,31.5,71.3,70.3c0,38.8-31.8,70.3-71.1,70.3c-26.2,0-49.2-14-61.5-34.9l9.4-5.6
		c-5.4-9.1-8.4-19.4-8.4-29.8c0-32.7,27.1-59.4,60.4-59.4V318.1z M306,466c43.3,0,78.4-34.8,78.4-77.6c0-42.8-35.2-77.6-78.6-77.6
		v-10.9c-49.3,0-89.5,39.7-89.5,88.5c0,15.6,4.5,31.1,12.5,44.7l9.4-5.5C251.9,450.5,277.2,466,306,466z M422.4,455.4
		c-23.4,39.4-66.8,65.9-116.3,65.9c-74.3,0-134.9-59.6-134.9-132.9s60.4-132.9,134.7-132.9v10.9c68.3,0,123.8,54.7,123.8,122
		c0,21.6-5.6,42.8-16.7,61.4L422.4,455.4z M306.1,528.6c52.2,0,97.9-27.9,122.6-69.5l9.4,5.6c13.7-23.1,20.7-49.4,20.7-76.3
		c0-83.3-68.6-151.1-152.9-151.1v10.9c-78.3,0-142,62.9-142,140.2C163.8,465.7,227.7,528.6,306.1,528.6z M306,195.6
		c107.8,0,195.4,86.5,195.4,192.8c0,35.4-9.7,68.6-26.7,97.2l-9.4-5.5c-33,55.7-94.1,90.2-159.3,90.2S179.7,535.7,146.7,480
		l-9.4,5.5c-17-28.6-26.7-61.8-26.7-97.2C110.6,282.1,198.3,195.6,306,195.6z M481,489.3c17.6-29.6,27.7-64.1,27.7-100.9
		c0-110.3-90.9-200-202.7-200c-111.8,0-202.7,89.7-202.7,200c0,36.8,10.1,71.2,27.7,100.9l-9.4,5.6
		c38.2,64.4,108.9,104.5,184.4,104.5s146.2-40,184.4-104.5L481,489.3z"/>
</g>
</svg>
